ffmpeg version N-82167-g5e96558 Copyright (c) 2000-2016 the FFmpeg developers
  built with gcc 5.4.0 (Ubuntu 5.4.0-6ubuntu1~16.04.2) 20160609
  configuration: --prefix=/root/ffmpeg_build --pkg-config-flags=--static --extra-cflags=-I/root/ffmpeg_build/include --extra-ldflags=-L/root/ffmpeg_build/lib --bindir=/root/bin --enable-gpl --enable-libass --enable-libfdk-aac --enable-libfreetype --enable-libmp3lame --enable-libopus --enable-libtheora --enable-libvorbis --enable-libx264 --enable-libx265 --enable-nonfree
  libavutil      55. 35.100 / 55. 35.100
  libavcodec     57. 65.100 / 57. 65.100
  libavformat    57. 57.100 / 57. 57.100
  libavdevice    57.  2.100 / 57.  2.100
  libavfilter     6. 66.100 /  6. 66.100
  libswscale      4.  3.100 /  4.  3.100
  libswresample   2.  4.100 /  2.  4.100
  libpostproc    54.  2.100 / 54.  2.100
Input #0, matroska,webm, from '/media/yubikiri/bot/queue/3AnimePahe_Detective_Conan_-_018_720p_Fansub.mkv':
  Metadata:
    title           : 3|Text||0|0
    ENCODER         : Lavf57.57.100
  Duration: 00:24:41.69, start: 0.000000, bitrate: 988 kb/s
    Stream #0:0: Video: mpeg4 (Advanced Simple Profile), yuv420p, 640x480 [SAR 1:1 DAR 4:3], 23.98 fps, 23.98 tbr, 1k tbn, 23.98 tbc (default)
    Metadata:
      DURATION        : 00:24:41.690000000
    Stream #0:1: Audio: mp3, 48000 Hz, stereo, s16p, 80 kb/s (default)
    Metadata:
      DURATION        : 00:24:41.592000000
[libx264 @ 0x2812940] using SAR=1/1
[libx264 @ 0x2812940] using cpu capabilities: MMX2 SSE2Fast SSSE3 SSE4.2 AVX FMA3 AVX2 LZCNT BMI2
[libx264 @ 0x2812940] profile High, level 3.1
[libx264 @ 0x2812940] 264 - core 148 r2643 5c65704 - H.264/MPEG-4 AVC codec - Copyleft 2003-2015 - http://www.videolan.org/x264.html - options: cabac=1 ref=8 deblock=1:1:1 analyse=0x3:0x133 me=umh subme=7 psy=1 psy_rd=0.00:0.00 mixed_ref=1 me_range=8 chroma_me=1 trellis=0 8x8dct=1 cqm=0 deadzone=21,11 fast_pskip=1 chroma_qp_offset=0 threads=8 lookahead_threads=2 sliced_threads=0 nr=0 decimate=1 interlaced=0 bluray_compat=0 constrained_intra=0 bframes=3 b_pyramid=2 b_adapt=2 b_bias=0 direct=1 weightb=1 open_gop=0 weightp=2 keyint=240 keyint_min=24 scenecut=40 intra_refresh=0 rc_lookahead=60 rc=crf mbtree=1 crf=27.0 qcomp=0.60 qpmin=0 qpmax=69 qpstep=4 ip_ratio=1.40 aq=1:1.00
[libfdk_aac @ 0x27991c0] Note, the VBR setting is unsupported and only works with some parameter combinations
Output #0, mp4, to '/media/yubikiri/bot/queue/3AnimePahe_Detective_Conan_-_018_720p_Fansub.mkv_encoded.mp4':
  Metadata:
    encoder         : Lavf57.57.100
    Stream #0:0: Video: h264 (libx264) ([33][0][0][0] / 0x0021), yuv420p, 640x480 [SAR 1:1 DAR 4:3], q=-1--1, 23.98 fps, 11988 tbn, 23.98 tbc (default)
    Metadata:
      encoder         : Lavc57.65.100 libx264
    Side data:
      cpb: bitrate max/min/avg: 0/0/0 buffer size: 0 vbv_delay: -1
    Stream #0:1: Audio: aac (libfdk_aac) (HE-AACv2) ([64][0][0][0] / 0x0040), 48000 Hz, stereo, s16, 48 kb/s (default)
    Metadata:
      encoder         : Lavc57.65.100 libfdk_aac
Stream mapping:
  Stream #0:0 -> #0:0 (mpeg4 (native) -> h264 (libx264))
  Stream #0:1 -> #0:1 (mp3 (native) -> aac (libfdk_aac))
Press [q] to stop, [?] for help
frame=  144 fps=0.0 q=32.0 size=     117kB time=00:00:06.16 bitrate= 155.4kbits/s dup=1 drop=0 speed=11.9x    frame=  263 fps=258 q=32.0 size=     262kB time=00:00:11.11 bitrate= 193.3kbits/s dup=1 drop=0 speed=10.9x    frame=  331 fps=218 q=32.0 size=     460kB time=00:00:13.97 bitrate= 269.9kbits/s dup=1 drop=0 speed=9.18x    frame=  409 fps=202 q=32.0 size=     640kB time=00:00:17.21 bitrate= 304.4kbits/s dup=1 drop=0 speed=8.49x    frame=  513 fps=203 q=32.0 size=     819kB time=00:00:21.56 bitrate= 311.0kbits/s dup=1 drop=0 speed=8.53x    frame=  594 fps=196 q=32.0 size=     974kB time=00:00:24.93 bitrate= 319.8kbits/s dup=1 drop=0 speed=8.24x    frame=  655 fps=185 q=32.0 size=    1167kB time=00:00:27.49 bitrate= 347.6kbits/s dup=1 drop=0 speed=7.78x    frame=  724 fps=179 q=32.0 size=    1362kB time=00:00:30.35 bitrate= 367.5kbits/s dup=1 drop=0 speed=7.52x    frame=  777 fps=170 q=32.0 size=    1526kB time=00:00:32.57 bitrate= 383.9kbits/s dup=1 drop=0 speed=7.14x    frame=  810 fps=160 q=32.0 size=    1680kB time=00:00:33.94 bitrate= 405.4kbits/s dup=1 drop=0 speed= 6.7x    frame=  844 fps=151 q=32.0 size=    1867kB time=00:00:35.35 bitrate= 432.5kbits/s dup=1 drop=0 speed=6.34x    frame=  880 fps=145 q=32.0 size=    2044kB time=00:00:36.84 bitrate= 454.4kbits/s dup=1 drop=0 speed=6.06x    frame=  921 fps=140 q=32.0 size=    2237kB time=00:00:38.55 bitrate= 475.4kbits/s dup=1 drop=0 speed=5.86x    frame=  968 fps=136 q=32.0 size=    2403kB time=00:00:40.55 bitrate= 485.3kbits/s dup=1 drop=0 speed=5.71x    frame= 1012 fps=130 q=32.0 size=    2538kB time=00:00:42.34 bitrate= 491.0kbits/s dup=1 drop=0 speed=5.45x    frame= 1048 fps=127 q=32.0 size=    2630kB time=00:00:43.88 bitrate= 491.0kbits/s dup=1 drop=0 speed= 5.3x    frame= 1125 fps=128 q=32.0 size=    2843kB time=00:00:47.08 bitrate= 494.7kbits/s dup=1 drop=0 speed=5.36x    frame= 1189 fps=128 q=32.0 size=    3020kB time=00:00:49.72 bitrate= 497.5kbits/s dup=1 drop=0 speed=5.36x    frame= 1234 fps=126 q=32.0 size=    3269kB time=00:00:51.60 bitrate= 518.9kbits/s dup=1 drop=0 speed=5.27x    frame= 1294 fps=126 q=32.0 size=    3481kB time=00:00:54.12 bitrate= 526.9kbits/s dup=1 drop=0 speed=5.26x    frame= 1369 fps=127 q=32.0 size=    3653kB time=00:00:57.28 bitrate= 522.4kbits/s dup=1 drop=0 speed=5.31x    frame= 1418 fps=125 q=32.0 size=    3866kB time=00:00:59.28 bitrate= 534.2kbits/s dup=1 drop=0 speed=5.24x    frame= 1473 fps=125 q=32.0 size=    4076kB time=00:01:01.59 bitrate= 542.2kbits/s dup=1 drop=0 speed=5.21x    frame= 1540 fps=125 q=32.0 size=    4294kB time=00:01:04.40 bitrate= 546.1kbits/s dup=1 drop=0 speed=5.22x    frame= 1612 fps=126 q=32.0 size=    4458kB time=00:01:07.39 bitrate= 541.9kbits/s dup=1 drop=0 speed=5.25x    frame= 1671 fps=125 q=32.0 size=    4633kB time=00:01:09.86 bitrate= 543.3kbits/s dup=1 drop=0 speed=5.24x    frame= 1726 fps=125 q=32.0 size=    4800kB time=00:01:12.12 bitrate= 545.2kbits/s dup=1 drop=0 speed=5.21x    frame= 1778 fps=124 q=32.0 size=    4994kB time=00:01:14.34 bitrate= 550.3kbits/s dup=1 drop=0 speed=5.17x    frame= 1819 fps=122 q=32.0 size=    5202kB time=00:01:16.01 bitrate= 560.7kbits/s dup=1 drop=0 speed=5.11x    frame= 1865 fps=121 q=32.0 size=    5435kB time=00:01:17.93 bitrate= 571.3kbits/s dup=1 drop=0 speed=5.06x    frame= 1919 fps=121 q=32.0 size=    5609kB time=00:01:20.19 bitrate= 573.0kbits/s dup=1 drop=0 speed=5.04x    frame= 1981 fps=121 q=32.0 size=    5781kB time=00:01:22.79 bitrate= 572.0kbits/s dup=1 drop=0 speed=5.05x    frame= 2060 fps=122 q=32.0 size=    5905kB time=00:01:26.08 bitrate= 561.9kbits/s dup=1 drop=0 speed=5.09x    frame= 2140 fps=123 q=32.0 size=    6094kB time=00:01:29.40 bitrate= 558.3kbits/s dup=1 drop=0 speed=5.13x    frame= 2273 fps=127 q=32.0 size=    6226kB time=00:01:34.95 bitrate= 537.1kbits/s dup=1 drop=0 speed= 5.3x    frame= 2408 fps=131 q=32.0 size=    6314kB time=00:01:40.58 bitrate= 514.2kbits/s dup=1 drop=0 speed=5.46x    frame= 2533 fps=134 q=32.0 size=    6420kB time=00:01:45.83 bitrate= 496.9kbits/s dup=1 drop=0 speed=5.59x    frame= 2667 fps=137 q=32.0 size=    6539kB time=00:01:51.42 bitrate= 480.8kbits/s dup=1 drop=0 speed=5.74x    frame= 2806 fps=141 q=32.0 size=    6661kB time=00:01:57.18 bitrate= 465.7kbits/s dup=1 drop=0 speed=5.88x    frame= 2860 fps=140 q=32.0 size=    6781kB time=00:01:59.44 bitrate= 465.1kbits/s dup=1 drop=0 speed=5.84x    frame= 2900 fps=138 q=32.0 size=    6867kB time=00:02:01.11 bitrate= 464.5kbits/s dup=1 drop=0 speed=5.78x    frame= 2939 fps=137 q=32.0 size=    6958kB time=00:02:02.73 bitrate= 464.5kbits/s dup=1 drop=0 speed=5.72x    frame= 2984 fps=136 q=32.0 size=    7036kB time=00:02:04.60 bitrate= 462.6kbits/s dup=1 drop=0 speed=5.67x    frame= 3018 fps=134 q=32.0 size=    7126kB time=00:02:06.01 bitrate= 463.3kbits/s dup=1 drop=0 speed=5.61x    frame= 3055 fps=133 q=32.0 size=    7211kB time=00:02:07.59 bitrate= 463.0kbits/s dup=1 drop=0 speed=5.55x    frame= 3103 fps=132 q=32.0 size=    7306kB time=00:02:09.55 bitrate= 462.0kbits/s dup=1 drop=0 speed=5.52x    frame= 3153 fps=131 q=32.0 size=    7396kB time=00:02:11.64 bitrate= 460.2kbits/s dup=1 drop=0 speed=5.49x    frame= 3219 fps=131 q=32.0 size=    7450kB time=00:02:14.46 bitrate= 453.9kbits/s dup=1 drop=0 speed=5.49x    frame= 3308 fps=132 q=32.0 size=    7507kB time=00:02:18.09 bitrate= 445.4kbits/s dup=1 drop=0 speed=5.53x    frame= 3364 fps=132 q=32.0 size=    7602kB time=00:02:20.48 bitrate= 443.3kbits/s dup=1 drop=0 speed=5.51x    frame= 3434 fps=132 q=32.0 size=    7721kB time=00:02:23.38 bitrate= 441.2kbits/s dup=1 drop=0 speed=5.52x    frame= 3520 fps=133 q=32.0 size=    7778kB time=00:02:26.96 bitrate= 433.5kbits/s dup=1 drop=0 speed=5.55x    frame= 3586 fps=133 q=32.0 size=    7887kB time=00:02:29.73 bitrate= 431.5kbits/s dup=1 drop=0 speed=5.55x    frame= 3653 fps=133 q=32.0 size=    7927kB time=00:02:32.51 bitrate= 425.8kbits/s dup=1 drop=0 speed=5.55x    frame= 3717 fps=133 q=32.0 size=    8049kB time=00:02:35.20 bitrate= 424.9kbits/s dup=1 drop=0 speed=5.54x    frame= 3766 fps=132 q=32.0 size=    8138kB time=00:02:37.20 bitrate= 424.1kbits/s dup=1 drop=0 speed=5.51x    frame= 3818 fps=131 q=32.0 size=    8209kB time=00:02:39.42 bitrate= 421.8kbits/s dup=1 drop=0 speed=5.49x    frame= 3863 fps=131 q=32.0 size=    8284kB time=00:02:41.25 bitrate= 420.8kbits/s dup=1 drop=0 speed=5.46x    frame= 3937 fps=131 q=32.0 size=    8373kB time=00:02:44.37 bitrate= 417.3kbits/s dup=1 drop=0 speed=5.47x    frame= 4005 fps=131 q=32.0 size=    8439kB time=00:02:47.19 bitrate= 413.5kbits/s dup=1 drop=0 speed=5.47x    frame= 4051 fps=130 q=32.0 size=    8501kB time=00:02:49.11 bitrate= 411.8kbits/s dup=1 drop=0 speed=5.44x    frame= 4103 fps=130 q=32.0 size=    8586kB time=00:02:51.24 bitrate= 410.7kbits/s dup=1 drop=0 speed=5.42x    frame= 4159 fps=130 q=32.0 size=    8633kB time=00:02:53.63 bitrate= 407.3kbits/s dup=1 drop=0 speed=5.41x    frame= 4210 fps=129 q=32.0 size=    8738kB time=00:02:55.76 bitrate= 407.3kbits/s dup=1 drop=0 speed=5.39x    frame= 4260 fps=129 q=32.0 size=    8851kB time=00:02:57.85 bitrate= 407.7kbits/s dup=1 drop=0 speed=5.37x    frame= 4344 fps=129 q=32.0 size=    8933kB time=00:03:01.35 bitrate= 403.5kbits/s dup=1 drop=0 speed= 5.4x    frame= 4430 fps=130 q=32.0 size=    9068kB time=00:03:04.93 bitrate= 401.7kbits/s dup=1 drop=0 speed=5.42x    frame= 4515 fps=130 q=32.0 size=    9177kB time=00:03:08.48 bitrate= 398.8kbits/s dup=1 drop=0 speed=5.45x    frame= 4598 fps=131 q=32.0 size=    9265kB time=00:03:11.93 bitrate= 395.4kbits/s dup=1 drop=0 speed=5.47x    frame= 4666 fps=131 q=32.0 size=    9364kB time=00:03:14.75 bitrate= 393.9kbits/s dup=1 drop=0 speed=5.47x    frame= 4716 fps=131 q=32.0 size=    9482kB time=00:03:16.84 bitrate= 394.6kbits/s dup=1 drop=0 speed=5.45x    frame= 4800 fps=131 q=32.0 size=    9569kB time=00:03:20.38 bitrate= 391.2kbits/s dup=1 drop=0 speed=5.47x    frame= 4871 fps=130 q=32.0 size=    9663kB time=00:03:23.28 bitrate= 389.4kbits/s dup=1 drop=0 speed=5.44x    frame= 4960 fps=131 q=32.0 size=    9775kB time=00:03:27.04 bitrate= 386.8kbits/s dup=1 drop=0 speed=5.46x    frame= 5035 fps=131 q=32.0 size=    9883kB time=00:03:30.15 bitrate= 385.3kbits/s dup=1 drop=0 speed=5.47x    frame= 5094 fps=131 q=32.0 size=    9976kB time=00:03:32.63 bitrate= 384.3kbits/s dup=1 drop=0 speed=5.46x    frame= 5155 fps=131 q=32.0 size=   10078kB time=00:03:35.14 bitrate= 383.7kbits/s dup=1 drop=0 speed=5.46x    frame= 5217 fps=131 q=32.0 size=   10188kB time=00:03:37.79 bitrate= 383.2kbits/s dup=1 drop=0 speed=5.46x    frame= 5273 fps=130 q=32.0 size=   10239kB time=00:03:40.05 bitrate= 381.2kbits/s dup=1 drop=0 speed=5.44x    frame= 5335 fps=130 q=32.0 size=   10326kB time=00:03:42.65 bitrate= 379.9kbits/s dup=1 drop=0 speed=5.44x    frame= 5406 fps=130 q=32.0 size=   10450kB time=00:03:45.64 bitrate= 379.4kbits/s dup=1 drop=0 speed=5.44x    frame= 5468 fps=130 q=32.0 size=   10534kB time=00:03:48.24 bitrate= 378.1kbits/s dup=1 drop=0 speed=5.44x    frame= 5522 fps=130 q=32.0 size=   10629kB time=00:03:50.46 bitrate= 377.8kbits/s dup=1 drop=0 speed=5.42x    frame= 5591 fps=130 q=32.0 size=   10750kB time=00:03:53.36 bitrate= 377.3kbits/s dup=1 drop=0 speed=5.43x    frame= 5676 fps=130 q=32.0 size=   10851kB time=00:03:56.90 bitrate= 375.2kbits/s dup=1 drop=0 speed=5.44x    frame= 5763 fps=131 q=32.0 size=   10935kB time=00:04:00.53 bitrate= 372.4kbits/s dup=1 drop=0 speed=5.46x    frame= 5826 fps=131 q=32.0 size=   11063kB time=00:04:03.13 bitrate= 372.7kbits/s dup=1 drop=0 speed=5.46x    frame= 5900 fps=131 q=32.0 size=   11206kB time=00:04:06.25 bitrate= 372.8kbits/s dup=1 drop=0 speed=5.47x    frame= 5983 fps=131 q=32.0 size=   11273kB time=00:04:09.70 bitrate= 369.8kbits/s dup=1 drop=0 speed=5.49x    frame= 6058 fps=132 q=32.0 size=   11366kB time=00:04:12.82 bitrate= 368.3kbits/s dup=1 drop=0 speed=5.49x    frame= 6137 fps=132 q=32.0 size=   11435kB time=00:04:16.10 bitrate= 365.8kbits/s dup=1 drop=0 speed= 5.5x    frame= 6219 fps=132 q=32.0 size=   11546kB time=00:04:19.52 bitrate= 364.5kbits/s dup=1 drop=0 speed=5.52x    frame= 6295 fps=132 q=32.0 size=   11646kB time=00:04:22.67 bitrate= 363.2kbits/s dup=1 drop=0 speed=5.53x    frame= 6365 fps=133 q=32.0 size=   11775kB time=00:04:25.62 bitrate= 363.2kbits/s dup=1 drop=0 speed=5.53x    frame= 6421 fps=132 q=32.0 size=   11896kB time=00:04:27.96 bitrate= 363.7kbits/s dup=1 drop=0 speed=5.52x    frame= 6477 fps=132 q=32.0 size=   12019kB time=00:04:30.31 bitrate= 364.2kbits/s dup=1 drop=0 speed=5.51x    frame= 6553 fps=132 q=32.0 size=   12141kB time=00:04:33.47 bitrate= 363.7kbits/s dup=1 drop=0 speed=5.52x    frame= 6621 fps=132 q=32.0 size=   12255kB time=00:04:36.28 bitrate= 363.4kbits/s dup=1 drop=0 speed=5.52x    frame= 6687 fps=132 q=32.0 size=   12327kB time=00:04:39.06 bitrate= 361.9kbits/s dup=1 drop=0 speed=5.52x    frame= 6738 fps=132 q=32.0 size=   12435kB time=00:04:41.19 bitrate= 362.3kbits/s dup=1 drop=0 speed= 5.5x    frame= 6818 fps=132 q=32.0 size=   12532kB time=00:04:44.52 bitrate= 360.8kbits/s dup=1 drop=0 speed=5.51x    frame= 6907 fps=133 q=32.0 size=   12627kB time=00:04:48.23 bitrate= 358.9kbits/s dup=1 drop=0 speed=5.53x    frame= 6974 fps=133 q=32.0 size=   12688kB time=00:04:51.00 bitrate= 357.2kbits/s dup=1 drop=0 speed=5.53x    frame= 7064 fps=133 q=32.0 size=   12842kB time=00:04:54.80 bitrate= 356.9kbits/s dup=1 drop=0 speed=5.55x    frame= 7145 fps=133 q=32.0 size=   12958kB time=00:04:58.17 bitrate= 356.0kbits/s dup=1 drop=0 speed=5.56x    frame= 7232 fps=134 q=32.0 size=   13083kB time=00:05:01.80 bitrate= 355.1kbits/s dup=1 drop=0 speed=5.58x    frame= 7312 fps=134 q=32.0 size=   13207kB time=00:05:05.13 bitrate= 354.6kbits/s dup=1 drop=0 speed=5.59x    frame= 7403 fps=134 q=32.0 size=   13322kB time=00:05:08.97 bitrate= 353.2kbits/s dup=1 drop=0 speed=5.61x    frame= 7468 fps=134 q=32.0 size=   13419kB time=00:05:11.65 bitrate= 352.7kbits/s dup=1 drop=0 speed= 5.6x    frame= 7556 fps=135 q=32.0 size=   13549kB time=00:05:15.32 bitrate= 352.0kbits/s dup=1 drop=0 speed=5.62x    frame= 7643 fps=135 q=32.0 size=   13667kB time=00:05:18.95 bitrate= 351.0kbits/s dup=1 drop=0 speed=5.63x    frame= 7748 fps=136 q=32.0 size=   13775kB time=00:05:23.30 bitrate= 349.0kbits/s dup=1 drop=0 speed=5.66x    frame= 7849 fps=136 q=32.0 size=   13873kB time=00:05:27.53 bitrate= 347.0kbits/s dup=1 drop=0 speed=5.68x    frame= 7938 fps=136 q=32.0 size=   14024kB time=00:05:31.24 bitrate= 346.8kbits/s dup=1 drop=0 speed= 5.7x    frame= 8037 fps=137 q=32.0 size=   14135kB time=00:05:35.38 bitrate= 345.3kbits/s dup=1 drop=0 speed=5.72x    frame= 8136 fps=138 q=32.0 size=   14237kB time=00:05:39.52 bitrate= 343.5kbits/s dup=1 drop=0 speed=5.74x    frame= 8211 fps=138 q=32.0 size=   14325kB time=00:05:42.63 bitrate= 342.5kbits/s dup=1 drop=0 speed=5.74x    frame= 8304 fps=138 q=32.0 size=   14467kB time=00:05:46.51 bitrate= 342.0kbits/s dup=1 drop=0 speed=5.76x    frame= 8389 fps=138 q=32.0 size=   14587kB time=00:05:50.01 bitrate= 341.4kbits/s dup=1 drop=0 speed=5.77x    frame= 8452 fps=138 q=32.0 size=   14705kB time=00:05:52.66 bitrate= 341.6kbits/s dup=1 drop=0 speed=5.76x    frame= 8545 fps=139 q=32.0 size=   14829kB time=00:05:56.58 bitrate= 340.7kbits/s dup=1 drop=0 speed=5.78x    frame= 8640 fps=139 q=32.0 size=   14924kB time=00:06:00.51 bitrate= 339.1kbits/s dup=1 drop=0 speed= 5.8x    frame= 8717 fps=139 q=32.0 size=   15035kB time=00:06:03.71 bitrate= 338.6kbits/s dup=1 drop=0 speed= 5.8x    frame= 8786 fps=139 q=32.0 size=   15172kB time=00:06:06.61 bitrate= 339.0kbits/s dup=1 drop=0 speed= 5.8x    frame= 8895 fps=140 q=32.0 size=   15261kB time=00:06:11.17 bitrate= 336.8kbits/s dup=1 drop=0 speed=5.83x    frame= 8992 fps=140 q=32.0 size=   15335kB time=00:06:15.19 bitrate= 334.8kbits/s dup=1 drop=0 speed=5.84x    frame= 9055 fps=140 q=32.0 size=   15421kB time=00:06:17.83 bitrate= 334.3kbits/s dup=1 drop=0 speed=5.84x    frame= 9132 fps=140 q=32.0 size=   15538kB time=00:06:21.03 bitrate= 334.1kbits/s dup=1 drop=0 speed=5.84x    frame= 9217 fps=140 q=32.0 size=   15624kB time=00:06:24.61 bitrate= 332.8kbits/s dup=1 drop=0 speed=5.85x    frame= 9321 fps=141 q=32.0 size=   15724kB time=00:06:28.88 bitrate= 331.2kbits/s dup=1 drop=0 speed=5.87x    frame= 9409 fps=141 q=32.0 size=   15821kB time=00:06:32.59 bitrate= 330.1kbits/s dup=1 drop=0 speed=5.88x    frame= 9473 fps=141 q=32.0 size=   15924kB time=00:06:35.24 bitrate= 330.1kbits/s dup=1 drop=0 speed=5.88x    frame= 9539 fps=141 q=32.0 size=   16002kB time=00:06:38.01 bitrate= 329.3kbits/s dup=1 drop=0 speed=5.87x    frame= 9610 fps=141 q=32.0 size=   16116kB time=00:06:40.96 bitrate= 329.3kbits/s dup=1 drop=0 speed=5.87x    frame= 9710 fps=141 q=32.0 size=   16256kB time=00:06:45.18 bitrate= 328.7kbits/s dup=1 drop=0 speed=5.89x    frame= 9801 fps=141 q=32.0 size=   16325kB time=00:06:48.93 bitrate= 327.0kbits/s dup=1 drop=0 speed= 5.9x    frame= 9896 fps=142 q=32.0 size=   16462kB time=00:06:52.90 bitrate= 326.6kbits/s dup=1 drop=0 speed=5.92x    frame= 9980 fps=142 q=32.0 size=   16593kB time=00:06:56.40 bitrate= 326.4kbits/s dup=1 drop=0 speed=5.92x    frame=10078 fps=142 q=32.0 size=   16707kB time=00:07:00.50 bitrate= 325.5kbits/s dup=1 drop=0 speed=5.94x    frame=10182 fps=143 q=32.0 size=   16778kB time=00:07:04.81 bitrate= 323.5kbits/s dup=1 drop=0 speed=5.96x    frame=10248 fps=143 q=32.0 size=   16893kB time=00:07:07.58 bitrate= 323.7kbits/s dup=1 drop=0 speed=5.95x    frame=10276 fps=141 q=32.0 size=   16953kB time=00:07:08.77 bitrate= 323.9kbits/s dup=1 drop=0 speed=5.89x    frame=10355 fps=141 q=32.0 size=   17095kB time=00:07:12.02 bitrate= 324.1kbits/s dup=1 drop=0 speed=5.89x    frame=10455 fps=142 q=32.0 size=   17227kB time=00:07:16.20 bitrate= 323.5kbits/s dup=1 drop=0 speed=5.91x    frame=10522 fps=142 q=29.0 size=   17346kB time=00:07:19.01 bitrate= 323.7kbits/s dup=1 drop=0 speed=5.91x    frame=10599 fps=142 q=32.0 size=   17506kB time=00:07:22.21 bitrate= 324.3kbits/s dup=1 drop=0 speed=5.91x    frame=10672 fps=142 q=32.0 size=   17638kB time=00:07:25.29 bitrate= 324.5kbits/s dup=1 drop=0 speed=5.91x    frame=10791 fps=142 q=32.0 size=   17723kB time=00:07:30.28 bitrate= 322.4kbits/s dup=1 drop=0 speed=5.94x    frame=10910 fps=143 q=32.0 size=   17830kB time=00:07:35.19 bitrate= 320.9kbits/s dup=1 drop=0 speed=5.97x    frame=11002 fps=143 q=32.0 size=   17906kB time=00:07:39.03 bitrate= 319.6kbits/s dup=1 drop=0 speed=5.98x    frame=11089 fps=143 q=32.0 size=   18008kB time=00:07:42.65 bitrate= 318.8kbits/s dup=1 drop=0 speed=5.98x    frame=11151 fps=143 q=32.0 size=   18091kB time=00:07:45.25 bitrate= 318.5kbits/s dup=1 drop=0 speed=5.98x    frame=11217 fps=143 q=32.0 size=   18179kB time=00:07:47.99 bitrate= 318.2kbits/s dup=1 drop=0 speed=5.97x    frame=11286 fps=143 q=32.0 size=   18295kB time=00:07:50.89 bitrate= 318.3kbits/s dup=1 drop=0 speed=5.97x    frame=11349 fps=143 q=32.0 size=   18439kB time=00:07:53.49 bitrate= 319.0kbits/s dup=1 drop=0 speed=5.97x    frame=11433 fps=143 q=32.0 size=   18578kB time=00:07:56.99 bitrate= 319.1kbits/s dup=1 drop=0 speed=5.97x    frame=11499 fps=143 q=32.0 size=   18678kB time=00:07:59.76 bitrate= 318.9kbits/s dup=1 drop=0 speed=5.97x    frame=11548 fps=143 q=32.0 size=   18770kB time=00:08:01.81 bitrate= 319.1kbits/s dup=1 drop=0 speed=5.96x    frame=11616 fps=143 q=32.0 size=   18874kB time=00:08:04.63 bitrate= 319.0kbits/s dup=1 drop=0 speed=5.95x    frame=11697 fps=143 q=32.0 size=   18981kB time=00:08:08.00 bitrate= 318.6kbits/s dup=1 drop=0 speed=5.96x    frame=11756 fps=143 q=32.0 size=   19091kB time=00:08:10.47 bitrate= 318.9kbits/s dup=1 drop=0 speed=5.95x    frame=11828 fps=143 q=32.0 size=   19187kB time=00:08:13.50 bitrate= 318.5kbits/s dup=1 drop=0 speed=5.95x    frame=11905 fps=143 q=32.0 size=   19301kB time=00:08:16.70 bitrate= 318.3kbits/s dup=1 drop=0 speed=5.96x    frame=11990 fps=143 q=32.0 size=   19388kB time=00:08:20.24 bitrate= 317.5kbits/s dup=1 drop=0 speed=5.96x    frame=12081 fps=143 q=32.0 size=   19454kB time=00:08:24.04 bitrate= 316.2kbits/s dup=1 drop=0 speed=5.97x    frame=12131 fps=143 q=32.0 size=   19581kB time=00:08:26.09 bitrate= 317.0kbits/s dup=1 drop=0 speed=5.96x    frame=12168 fps=142 q=32.0 size=   19687kB time=00:08:27.67 bitrate= 317.7kbits/s dup=1 drop=0 speed=5.94x    frame=12236 fps=142 q=32.0 size=   19808kB time=00:08:30.48 bitrate= 317.9kbits/s dup=1 drop=0 speed=5.94x    frame=12327 fps=142 q=32.0 size=   19951kB time=00:08:34.28 bitrate= 317.8kbits/s dup=1 drop=0 speed=5.95x    frame=12423 fps=143 q=32.0 size=   20074kB time=00:08:38.29 bitrate= 317.3kbits/s dup=1 drop=0 speed=5.96x    frame=12503 fps=143 q=32.0 size=   20186kB time=00:08:41.62 bitrate= 317.0kbits/s dup=1 drop=0 speed=5.96x    frame=12589 fps=143 q=32.0 size=   20292kB time=00:08:45.20 bitrate= 316.5kbits/s dup=1 drop=0 speed=5.96x    frame=12667 fps=143 q=32.0 size=   20412kB time=00:08:48.49 bitrate= 316.4kbits/s dup=1 drop=0 speed=5.96x    frame=12751 fps=143 q=32.0 size=   20537kB time=00:08:51.99 bitrate= 316.2kbits/s dup=1 drop=0 speed=5.97x    frame=12822 fps=143 q=32.0 size=   20635kB time=00:08:54.97 bitrate= 316.0kbits/s dup=1 drop=0 speed=5.97x    frame=12876 fps=143 q=32.0 size=   20756kB time=00:08:57.19 bitrate= 316.5kbits/s dup=1 drop=0 speed=5.96x    frame=12955 fps=143 q=32.0 size=   20896kB time=00:09:00.48 bitrate= 316.7kbits/s dup=1 drop=0 speed=5.96x    frame=13023 fps=143 q=32.0 size=   20974kB time=00:09:03.33 bitrate= 316.2kbits/s dup=1 drop=0 speed=5.96x    frame=13090 fps=143 q=32.0 size=   21110kB time=00:09:06.11 bitrate= 316.7kbits/s dup=1 drop=0 speed=5.96x    frame=13131 fps=142 q=32.0 size=   21173kB time=00:09:07.81 bitrate= 316.6kbits/s dup=1 drop=0 speed=5.93x    frame=13196 fps=142 q=32.0 size=   21315kB time=00:09:10.55 bitrate= 317.2kbits/s dup=1 drop=0 speed=5.92x    frame=13261 fps=142 q=32.0 size=   21465kB time=00:09:13.23 bitrate= 317.8kbits/s dup=1 drop=0 speed=5.92x    frame=13325 fps=142 q=32.0 size=   21605kB time=00:09:15.92 bitrate= 318.4kbits/s dup=1 drop=0 speed=5.92x    frame=13378 fps=142 q=32.0 size=   21718kB time=00:09:18.14 bitrate= 318.8kbits/s dup=1 drop=0 speed=5.91x    frame=13431 fps=141 q=32.0 size=   21852kB time=00:09:20.36 bitrate= 319.5kbits/s dup=1 drop=0 speed= 5.9x    frame=13497 fps=141 q=32.0 size=   21943kB time=00:09:23.09 bitrate= 319.2kbits/s dup=1 drop=0 speed= 5.9x    frame=13559 fps=141 q=32.0 size=   22058kB time=00:09:25.69 bitrate= 319.4kbits/s dup=1 drop=0 speed=5.89x    frame=13640 fps=141 q=32.0 size=   22199kB time=00:09:29.06 bitrate= 319.6kbits/s dup=1 drop=0 speed= 5.9x    frame=13722 fps=141 q=32.0 size=   22318kB time=00:09:32.48 bitrate= 319.4kbits/s dup=1 drop=0 speed= 5.9x    frame=13798 fps=142 q=32.0 size=   22451kB time=00:09:35.63 bitrate= 319.5kbits/s dup=1 drop=0 speed= 5.9x    frame=13892 fps=142 q=32.0 size=   22566kB time=00:09:39.56 bitrate= 319.0kbits/s dup=1 drop=0 speed=5.91x    frame=14000 fps=142 q=32.0 size=   22703kB time=00:09:44.08 bitrate= 318.4kbits/s dup=1 drop=0 speed=5.93x    frame=14100 fps=142 q=32.0 size=   22811kB time=00:09:48.22 bitrate= 317.7kbits/s dup=1 drop=0 speed=5.94x    frame=14207 fps=143 q=32.0 size=   22900kB time=00:09:52.74 bitrate= 316.5kbits/s dup=1 drop=0 speed=5.95x    frame=14287 fps=143 q=32.0 size=   22995kB time=00:09:56.03 bitrate= 316.1kbits/s dup=1 drop=0 speed=5.96x    frame=14382 fps=143 q=32.0 size=   23090kB time=00:10:00.00 bitrate= 315.2kbits/s dup=1 drop=0 speed=5.97x    frame=14472 fps=143 q=32.0 size=   23218kB time=00:10:03.75 bitrate= 315.0kbits/s dup=1 drop=0 speed=5.97x    frame=14551 fps=143 q=32.0 size=   23348kB time=00:10:07.04 bitrate= 315.1kbits/s dup=1 drop=0 speed=5.98x    frame=14626 fps=143 q=32.0 size=   23437kB time=00:10:10.15 bitrate= 314.7kbits/s dup=1 drop=0 speed=5.98x    frame=14714 fps=143 q=32.0 size=   23540kB time=00:10:13.86 bitrate= 314.1kbits/s dup=1 drop=0 speed=5.98x    frame=14814 fps=144 q=32.0 size=   23660kB time=00:10:18.00 bitrate= 313.6kbits/s dup=1 drop=0 speed=   6x    frame=14905 fps=144 q=32.0 size=   23777kB time=00:10:21.80 bitrate= 313.2kbits/s dup=1 drop=0 speed=   6x    frame=15011 fps=144 q=32.0 size=   23861kB time=00:10:26.24 bitrate= 312.1kbits/s dup=1 drop=0 speed=6.02x    frame=15115 fps=144 q=32.0 size=   23963kB time=00:10:30.59 bitrate= 311.3kbits/s dup=1 drop=0 speed=6.02x    frame=15199 fps=145 q=32.0 size=   24042kB time=00:10:34.09 bitrate= 310.6kbits/s dup=1 drop=0 speed=6.03x    frame=15290 fps=145 q=32.0 size=   24148kB time=00:10:37.88 bitrate= 310.1kbits/s dup=1 drop=0 speed=6.03x    frame=15372 fps=145 q=32.0 size=   24242kB time=00:10:41.30 bitrate= 309.7kbits/s dup=1 drop=0 speed=6.04x    frame=15457 fps=145 q=32.0 size=   24351kB time=00:10:44.84 bitrate= 309.4kbits/s dup=1 drop=0 speed=6.04x    frame=15529 fps=145 q=32.0 size=   24459kB time=00:10:47.87 bitrate= 309.3kbits/s dup=1 drop=0 speed=6.04x    frame=15613 fps=145 q=32.0 size=   24525kB time=00:10:51.37 bitrate= 308.4kbits/s dup=1 drop=0 speed=6.05x    frame=15674 fps=145 q=32.0 size=   24622kB time=00:10:53.88 bitrate= 308.5kbits/s dup=1 drop=0 speed=6.04x    frame=15736 fps=145 q=32.0 size=   24725kB time=00:10:56.49 bitrate= 308.5kbits/s dup=1 drop=0 speed=6.04x    frame=15842 fps=145 q=32.0 size=   24860kB time=00:11:00.92 bitrate= 308.1kbits/s dup=1 drop=0 speed=6.05x    frame=15943 fps=145 q=32.0 size=   24972kB time=00:11:05.11 bitrate= 307.6kbits/s dup=1 drop=0 speed=6.06x    frame=16035 fps=145 q=32.0 size=   25076kB time=00:11:08.99 bitrate= 307.1kbits/s dup=1 drop=0 speed=6.07x    frame=16133 fps=146 q=29.0 size=   25165kB time=00:11:13.04 bitrate= 306.3kbits/s dup=1 drop=0 speed=6.08x    frame=16247 fps=146 q=32.0 size=   25290kB time=00:11:17.78 bitrate= 305.7kbits/s dup=1 drop=0 speed=6.09x    frame=16347 fps=146 q=32.0 size=   25404kB time=00:11:21.96 bitrate= 305.2kbits/s dup=1 drop=0 speed= 6.1x    frame=16428 fps=146 q=32.0 size=   25520kB time=00:11:25.33 bitrate= 305.0kbits/s dup=1 drop=0 speed= 6.1x    frame=16482 fps=146 q=32.0 size=   25614kB time=00:11:27.59 bitrate= 305.2kbits/s dup=1 drop=0 speed= 6.1x    frame=16583 fps=146 q=32.0 size=   25739kB time=00:11:31.81 bitrate= 304.8kbits/s dup=1 drop=0 speed=6.11x    frame=16648 fps=146 q=32.0 size=   25828kB time=00:11:34.50 bitrate= 304.7kbits/s dup=1 drop=0 speed= 6.1x    frame=16721 fps=146 q=32.0 size=   25902kB time=00:11:37.57 bitrate= 304.2kbits/s dup=1 drop=0 speed= 6.1x    frame=16797 fps=146 q=32.0 size=   26028kB time=00:11:40.73 bitrate= 304.3kbits/s dup=1 drop=0 speed= 6.1x    frame=16869 fps=146 q=32.0 size=   26111kB time=00:11:43.72 bitrate= 304.0kbits/s dup=1 drop=0 speed= 6.1x    frame=16957 fps=146 q=32.0 size=   26216kB time=00:11:47.39 bitrate= 303.6kbits/s dup=1 drop=0 speed=6.11x    frame=17060 fps=147 q=32.0 size=   26287kB time=00:11:51.70 bitrate= 302.6kbits/s dup=1 drop=0 speed=6.12x    frame=17155 fps=147 q=32.0 size=   26419kB time=00:11:55.67 bitrate= 302.4kbits/s dup=1 drop=0 speed=6.13x    frame=17244 fps=147 q=32.0 size=   26536kB time=00:11:59.38 bitrate= 302.2kbits/s dup=1 drop=0 speed=6.13x    frame=17374 fps=147 q=32.0 size=   26629kB time=00:12:04.80 bitrate= 301.0kbits/s dup=1 drop=0 speed=6.15x    frame=17500 fps=148 q=32.0 size=   26746kB time=00:12:10.04 bitrate= 300.1kbits/s dup=1 drop=0 speed=6.17x    frame=17604 fps=148 q=32.0 size=   26826kB time=00:12:14.40 bitrate= 299.2kbits/s dup=1 drop=0 speed=6.18x    frame=17705 fps=148 q=32.0 size=   26971kB time=00:12:18.58 bitrate= 299.1kbits/s dup=1 drop=0 speed=6.19x    frame=17827 fps=149 q=32.0 size=   27051kB time=00:12:23.70 bitrate= 298.0kbits/s dup=1 drop=0 speed=6.21x    frame=17933 fps=149 q=32.0 size=   27166kB time=00:12:28.09 bitrate= 297.5kbits/s dup=1 drop=0 speed=6.22x    frame=18037 fps=149 q=32.0 size=   27306kB time=00:12:32.44 bitrate= 297.3kbits/s dup=1 drop=0 speed=6.23x    frame=18156 fps=150 q=32.0 size=   27397kB time=00:12:37.39 bitrate= 296.3kbits/s dup=1 drop=0 speed=6.24x    frame=18269 fps=150 q=32.0 size=   27523kB time=00:12:42.13 bitrate= 295.8kbits/s dup=1 drop=0 speed=6.26x    frame=18363 fps=150 q=32.0 size=   27642kB time=00:12:46.05 bitrate= 295.6kbits/s dup=1 drop=0 speed=6.26x    frame=18456 fps=150 q=32.0 size=   27762kB time=00:12:49.89 bitrate= 295.4kbits/s dup=1 drop=0 speed=6.27x    frame=18535 fps=150 q=32.0 size=   27867kB time=00:12:53.22 bitrate= 295.2kbits/s dup=1 drop=0 speed=6.27x    frame=18643 fps=151 q=32.0 size=   27989kB time=00:12:57.70 bitrate= 294.8kbits/s dup=1 drop=0 speed=6.28x    frame=18741 fps=151 q=32.0 size=   28083kB time=00:13:01.80 bitrate= 294.3kbits/s dup=1 drop=0 speed=6.29x    frame=18826 fps=151 q=32.0 size=   28207kB time=00:13:05.34 bitrate= 294.2kbits/s dup=1 drop=0 speed=6.29x    frame=18924 fps=151 q=32.0 size=   28299kB time=00:13:09.44 bitrate= 293.7kbits/s dup=1 drop=0 speed=6.29x    frame=18972 fps=151 q=32.0 size=   28406kB time=00:13:11.48 bitrate= 294.0kbits/s dup=1 drop=0 speed=6.29x    frame=19067 fps=151 q=32.0 size=   28509kB time=00:13:15.41 bitrate= 293.6kbits/s dup=1 drop=0 speed=6.29x    frame=19163 fps=151 q=32.0 size=   28624kB time=00:13:19.42 bitrate= 293.3kbits/s dup=1 drop=0 speed= 6.3x    frame=19252 fps=151 q=32.0 size=   28749kB time=00:13:23.13 bitrate= 293.2kbits/s dup=1 drop=0 speed= 6.3x    frame=19318 fps=151 q=32.0 size=   28849kB time=00:13:25.86 bitrate= 293.3kbits/s dup=1 drop=0 speed= 6.3x    frame=19408 fps=151 q=32.0 size=   28958kB time=00:13:29.62 bitrate= 293.0kbits/s dup=1 drop=0 speed= 6.3x    frame=19490 fps=151 q=32.0 size=   29076kB time=00:13:33.03 bitrate= 293.0kbits/s dup=1 drop=0 speed= 6.3x    frame=19575 fps=151 q=32.0 size=   29175kB time=00:13:36.57 bitrate= 292.7kbits/s dup=1 drop=0 speed=6.31x    frame=19663 fps=151 q=32.0 size=   29277kB time=00:13:40.28 bitrate= 292.4kbits/s dup=1 drop=0 speed=6.31x    frame=19754 fps=151 q=32.0 size=   29365kB time=00:13:44.04 bitrate= 291.9kbits/s dup=1 drop=0 speed=6.32x    frame=19858 fps=152 q=32.0 size=   29452kB time=00:13:48.39 bitrate= 291.2kbits/s dup=1 drop=0 speed=6.33x    frame=19936 fps=152 q=32.0 size=   29547kB time=00:13:51.63 bitrate= 291.0kbits/s dup=1 drop=0 speed=6.33x    frame=20008 fps=152 q=32.0 size=   29660kB time=00:13:54.66 bitrate= 291.1kbits/s dup=1 drop=0 speed=6.32x    frame=20100 fps=152 q=32.0 size=   29792kB time=00:13:58.46 bitrate= 291.1kbits/s dup=1 drop=0 speed=6.33x    frame=20190 fps=152 q=32.0 size=   29869kB time=00:14:02.26 bitrate= 290.5kbits/s dup=1 drop=0 speed=6.33x    frame=20263 fps=152 q=32.0 size=   29958kB time=00:14:05.29 bitrate= 290.3kbits/s dup=1 drop=0 speed=6.33x    frame=20354 fps=152 q=32.0 size=   30071kB time=00:14:09.08 bitrate= 290.1kbits/s dup=1 drop=0 speed=6.34x    frame=20423 fps=152 q=32.0 size=   30173kB time=00:14:11.99 bitrate= 290.1kbits/s dup=1 drop=0 speed=6.33x    frame=20522 fps=152 q=32.0 size=   30269kB time=00:14:16.08 bitrate= 289.7kbits/s dup=1 drop=0 speed=6.34x    frame=20592 fps=152 q=32.0 size=   30359kB time=00:14:18.98 bitrate= 289.5kbits/s dup=1 drop=0 speed=6.34x    frame=20648 fps=152 q=32.0 size=   30463kB time=00:14:21.37 bitrate= 289.7kbits/s dup=1 drop=0 speed=6.33x    frame=20699 fps=152 q=32.0 size=   30601kB time=00:14:23.46 bitrate= 290.3kbits/s dup=1 drop=0 speed=6.32x    frame=20803 fps=152 q=32.0 size=   30706kB time=00:14:27.81 bitrate= 289.9kbits/s dup=1 drop=0 speed=6.33x    frame=20884 fps=152 q=32.0 size=   30855kB time=00:14:31.19 bitrate= 290.1kbits/s dup=1 drop=0 speed=6.33x    frame=20930 fps=151 q=32.0 size=   30904kB time=00:14:33.11 bitrate= 290.0kbits/s dup=1 drop=0 speed=6.32x    frame=21015 fps=152 q=32.0 size=   31010kB time=00:14:36.65 bitrate= 289.8kbits/s dup=1 drop=0 speed=6.32x    frame=21093 fps=152 q=32.0 size=   31195kB time=00:14:39.89 bitrate= 290.4kbits/s dup=1 drop=0 speed=6.32x    frame=21195 fps=152 q=32.0 size=   31304kB time=00:14:44.20 bitrate= 290.0kbits/s dup=1 drop=0 speed=6.33x    frame=21282 fps=152 q=32.0 size=   31420kB time=00:14:47.78 bitrate= 289.9kbits/s dup=1 drop=0 speed=6.33x    frame=21341 fps=152 q=32.0 size=   31536kB time=00:14:50.26 bitrate= 290.2kbits/s dup=1 drop=0 speed=6.33x    frame=21397 fps=152 q=32.0 size=   31655kB time=00:14:52.56 bitrate= 290.5kbits/s dup=1 drop=0 speed=6.32x    frame=21454 fps=151 q=32.0 size=   31752kB time=00:14:54.95 bitrate= 290.6kbits/s dup=1 drop=0 speed=6.32x    frame=21564 fps=152 q=32.0 size=   31857kB time=00:14:59.56 bitrate= 290.1kbits/s dup=1 drop=0 speed=6.33x    frame=21668 fps=152 q=32.0 size=   31961kB time=00:15:03.87 bitrate= 289.7kbits/s dup=1 drop=0 speed=6.33x    frame=21744 fps=152 q=32.0 size=   32018kB time=00:15:07.07 bitrate= 289.2kbits/s dup=1 drop=0 speed=6.33x    frame=21806 fps=152 q=32.0 size=   32105kB time=00:15:09.63 bitrate= 289.1kbits/s dup=1 drop=0 speed=6.33x    frame=21863 fps=152 q=32.0 size=   32198kB time=00:15:12.06 bitrate= 289.2kbits/s dup=1 drop=0 speed=6.32x    frame=21916 fps=151 q=32.0 size=   32258kB time=00:15:14.24 bitrate= 289.0kbits/s dup=1 drop=0 speed=6.32x    frame=21959 fps=151 q=32.0 size=   32311kB time=00:15:16.03 bitrate= 289.0kbits/s dup=1 drop=0 speed=6.31x    frame=22019 fps=151 q=32.0 size=   32376kB time=00:15:18.50 bitrate= 288.8kbits/s dup=1 drop=0 speed= 6.3x    frame=22110 fps=151 q=32.0 size=   32472kB time=00:15:22.30 bitrate= 288.4kbits/s dup=1 drop=0 speed=6.31x    frame=22218 fps=151 q=32.0 size=   32571kB time=00:15:26.82 bitrate= 287.9kbits/s dup=1 drop=0 speed=6.31x    frame=22309 fps=151 q=32.0 size=   32650kB time=00:15:30.62 bitrate= 287.4kbits/s dup=1 drop=0 speed=6.32x    frame=22381 fps=151 q=32.0 size=   32765kB time=00:15:33.61 bitrate= 287.5kbits/s dup=1 drop=0 speed=6.32x    frame=22459 fps=151 q=32.0 size=   32829kB time=00:15:36.85 bitrate= 287.1kbits/s dup=1 drop=0 speed=6.32x    frame=22542 fps=152 q=32.0 size=   32920kB time=00:15:40.35 bitrate= 286.8kbits/s dup=1 drop=0 speed=6.32x    frame=22615 fps=151 q=32.0 size=   33033kB time=00:15:43.38 bitrate= 286.8kbits/s dup=1 drop=0 speed=6.32x    frame=22693 fps=151 q=32.0 size=   33112kB time=00:15:46.66 bitrate= 286.5kbits/s dup=1 drop=0 speed=6.32x    frame=22747 fps=151 q=32.0 size=   33214kB time=00:15:48.88 bitrate= 286.7kbits/s dup=1 drop=0 speed=6.31x    frame=22825 fps=151 q=32.0 size=   33339kB time=00:15:52.17 bitrate= 286.8kbits/s dup=1 drop=0 speed=6.31x    frame=22935 fps=152 q=32.0 size=   33414kB time=00:15:56.73 bitrate= 286.1kbits/s dup=1 drop=0 speed=6.32x    frame=23020 fps=152 q=32.0 size=   33556kB time=00:16:00.27 bitrate= 286.3kbits/s dup=1 drop=0 speed=6.33x    frame=23079 fps=152 q=32.0 size=   33663kB time=00:16:02.75 bitrate= 286.4kbits/s dup=1 drop=0 speed=6.32x    frame=23150 fps=151 q=32.0 size=   33787kB time=00:16:05.69 bitrate= 286.6kbits/s dup=1 drop=0 speed=6.32x    frame=23223 fps=151 q=32.0 size=   33876kB time=00:16:08.76 bitrate= 286.5kbits/s dup=1 drop=0 speed=6.32x    frame=23267 fps=151 q=32.0 size=   33972kB time=00:16:10.60 bitrate= 286.7kbits/s dup=1 drop=0 speed=6.31x    frame=23333 fps=151 q=32.0 size=   34091kB time=00:16:13.33 bitrate= 286.9kbits/s dup=1 drop=0 speed=6.31x    frame=23440 fps=151 q=32.0 size=   34225kB time=00:16:17.81 bitrate= 286.7kbits/s dup=1 drop=0 speed=6.31x    frame=23547 fps=152 q=32.0 size=   34341kB time=00:16:22.25 bitrate= 286.4kbits/s dup=1 drop=0 speed=6.32x    frame=23627 fps=152 q=32.0 size=   34461kB time=00:16:25.62 bitrate= 286.4kbits/s dup=1 drop=0 speed=6.32x    frame=23746 fps=152 q=32.0 size=   34579kB time=00:16:30.57 bitrate= 286.0kbits/s dup=1 drop=0 speed=6.33x    frame=23869 fps=152 q=32.0 size=   34705kB time=00:16:35.69 bitrate= 285.5kbits/s dup=1 drop=0 speed=6.34x    frame=23939 fps=152 q=32.0 size=   34842kB time=00:16:38.63 bitrate= 285.8kbits/s dup=1 drop=0 speed=6.34x    frame=24045 fps=152 q=32.0 size=   34958kB time=00:16:43.03 bitrate= 285.5kbits/s dup=1 drop=0 speed=6.35x    frame=24135 fps=152 q=32.0 size=   35057kB time=00:16:46.78 bitrate= 285.2kbits/s dup=1 drop=0 speed=6.35x    frame=24213 fps=152 q=32.0 size=   35128kB time=00:16:50.02 bitrate= 284.9kbits/s dup=1 drop=0 speed=6.35x    frame=24289 fps=152 q=32.0 size=   35202kB time=00:16:53.22 bitrate= 284.6kbits/s dup=1 drop=0 speed=6.35x    frame=24382 fps=152 q=32.0 size=   35325kB time=00:16:57.11 bitrate= 284.5kbits/s dup=1 drop=0 speed=6.35x    frame=24496 fps=153 q=32.0 size=   35444kB time=00:17:01.84 bitrate= 284.1kbits/s dup=1 drop=0 speed=6.36x    frame=24624 fps=153 q=32.0 size=   35551kB time=00:17:07.17 bitrate= 283.5kbits/s dup=1 drop=0 speed=6.38x    frame=24733 fps=153 q=32.0 size=   35683kB time=00:17:11.74 bitrate= 283.3kbits/s dup=1 drop=0 speed=6.39x    frame=24836 fps=153 q=32.0 size=   35781kB time=00:17:16.01 bitrate= 282.9kbits/s dup=1 drop=0 speed=6.39x    frame=24929 fps=153 q=32.0 size=   35910kB time=00:17:19.89 bitrate= 282.9kbits/s dup=1 drop=0 speed= 6.4x    frame=25007 fps=153 q=32.0 size=   36022kB time=00:17:23.13 bitrate= 282.9kbits/s dup=1 drop=0 speed= 6.4x    frame=25095 fps=153 q=32.0 size=   36116kB time=00:17:26.84 bitrate= 282.6kbits/s dup=1 drop=0 speed= 6.4x    frame=25200 fps=154 q=32.0 size=   36209kB time=00:17:31.20 bitrate= 282.2kbits/s dup=1 drop=0 speed=6.41x    frame=25289 fps=154 q=32.0 size=   36324kB time=00:17:34.91 bitrate= 282.1kbits/s dup=1 drop=0 speed=6.41x    frame=25337 fps=153 q=32.0 size=   36381kB time=00:17:36.91 bitrate= 282.0kbits/s dup=1 drop=0 speed= 6.4x    frame=25398 fps=153 q=32.0 size=   36451kB time=00:17:39.47 bitrate= 281.8kbits/s dup=1 drop=0 speed= 6.4x    frame=25459 fps=153 q=32.0 size=   36520kB time=00:17:42.03 bitrate= 281.7kbits/s dup=1 drop=0 speed=6.39x    frame=25537 fps=153 q=32.0 size=   36618kB time=00:17:45.28 bitrate= 281.6kbits/s dup=1 drop=0 speed=6.39x    frame=25640 fps=153 q=32.0 size=   36719kB time=00:17:49.54 bitrate= 281.2kbits/s dup=1 drop=0 speed= 6.4x    frame=25740 fps=154 q=32.0 size=   36800kB time=00:17:53.72 bitrate= 280.8kbits/s dup=1 drop=0 speed= 6.4x    frame=25863 fps=154 q=32.0 size=   36893kB time=00:17:58.89 bitrate= 280.1kbits/s dup=1 drop=0 speed=6.42x    frame=25968 fps=154 q=32.0 size=   37023kB time=00:18:03.24 bitrate= 280.0kbits/s dup=1 drop=0 speed=6.42x    frame=26051 fps=154 q=32.0 size=   37124kB time=00:18:06.69 bitrate= 279.9kbits/s dup=1 drop=0 speed=6.42x    frame=26122 fps=154 q=32.0 size=   37243kB time=00:18:09.68 bitrate= 280.0kbits/s dup=1 drop=0 speed=6.42x    frame=26176 fps=154 q=32.0 size=   37380kB time=00:18:11.94 bitrate= 280.4kbits/s dup=1 drop=0 speed=6.42x    frame=26259 fps=154 q=32.0 size=   37507kB time=00:18:15.40 bitrate= 280.5kbits/s dup=1 drop=0 speed=6.42x    frame=26321 fps=154 q=32.0 size=   37635kB time=00:18:17.96 bitrate= 280.8kbits/s dup=1 drop=0 speed=6.41x    frame=26415 fps=154 q=32.0 size=   37783kB time=00:18:21.93 bitrate= 280.9kbits/s dup=1 drop=0 speed=6.42x    frame=26495 fps=154 q=32.0 size=   37911kB time=00:18:25.21 bitrate= 281.0kbits/s dup=1 drop=0 speed=6.42x    frame=26577 fps=154 q=32.0 size=   38070kB time=00:18:28.63 bitrate= 281.3kbits/s dup=1 drop=0 speed=6.42x    frame=26680 fps=154 q=32.0 size=   38222kB time=00:18:32.93 bitrate= 281.3kbits/s dup=1 drop=0 speed=6.42x    frame=26804 fps=154 q=32.0 size=   38306kB time=00:18:38.10 bitrate= 280.7kbits/s dup=1 drop=0 speed=6.44x    frame=26878 fps=154 q=32.0 size=   38444kB time=00:18:41.21 bitrate= 280.9kbits/s dup=1 drop=0 speed=6.43x    frame=26943 fps=154 q=32.0 size=   38618kB time=00:18:43.90 bitrate= 281.5kbits/s dup=1 drop=0 speed=6.43x    frame=27044 fps=154 q=32.0 size=   38844kB time=00:18:48.12 bitrate= 282.1kbits/s dup=1 drop=0 speed=6.44x    frame=27152 fps=154 q=32.0 size=   38969kB time=00:18:52.60 bitrate= 281.9kbits/s dup=1 drop=0 speed=6.44x    frame=27252 fps=155 q=32.0 size=   39082kB time=00:18:56.79 bitrate= 281.6kbits/s dup=1 drop=0 speed=6.45x    frame=27329 fps=155 q=32.0 size=   39183kB time=00:18:59.99 bitrate= 281.6kbits/s dup=1 drop=0 speed=6.45x    frame=27398 fps=155 q=32.0 size=   39291kB time=00:19:02.89 bitrate= 281.6kbits/s dup=1 drop=0 speed=6.45x    frame=27493 fps=155 q=32.0 size=   39423kB time=00:19:06.81 bitrate= 281.6kbits/s dup=1 drop=0 speed=6.45x    frame=27592 fps=155 q=32.0 size=   39515kB time=00:19:10.95 bitrate= 281.3kbits/s dup=1 drop=0 speed=6.45x    frame=27702 fps=155 q=32.0 size=   39637kB time=00:19:15.56 bitrate= 281.0kbits/s dup=1 drop=0 speed=6.46x    frame=27810 fps=155 q=32.0 size=   39744kB time=00:19:20.04 bitrate= 280.7kbits/s dup=1 drop=0 speed=6.47x    frame=27903 fps=155 q=32.0 size=   39814kB time=00:19:23.92 bitrate= 280.2kbits/s dup=1 drop=0 speed=6.47x    frame=27981 fps=155 q=32.0 size=   39861kB time=00:19:27.21 bitrate= 279.8kbits/s dup=1 drop=0 speed=6.47x    frame=28060 fps=155 q=32.0 size=   39970kB time=00:19:30.49 bitrate= 279.7kbits/s dup=1 drop=0 speed=6.47x    frame=28157 fps=155 q=32.0 size=   40070kB time=00:19:34.55 bitrate= 279.5kbits/s dup=1 drop=0 speed=6.48x    frame=28235 fps=155 q=32.0 size=   40164kB time=00:19:37.79 bitrate= 279.4kbits/s dup=1 drop=0 speed=6.48x    frame=28316 fps=155 q=32.0 size=   40268kB time=00:19:41.16 bitrate= 279.3kbits/s dup=1 drop=0 speed=6.48x    frame=28379 fps=155 q=32.0 size=   40379kB time=00:19:43.80 bitrate= 279.4kbits/s dup=1 drop=0 speed=6.47x    frame=28466 fps=155 q=32.0 size=   40474kB time=00:19:47.43 bitrate= 279.2kbits/s dup=1 drop=0 speed=6.48x    frame=28558 fps=155 q=32.0 size=   40586kB time=00:19:51.27 bitrate= 279.1kbits/s dup=1 drop=0 speed=6.48x    frame=28666 fps=155 q=32.0 size=   40754kB time=00:19:55.75 bitrate= 279.2kbits/s dup=1 drop=0 speed=6.49x    frame=28769 fps=156 q=32.0 size=   40837kB time=00:20:00.06 bitrate= 278.8kbits/s dup=1 drop=0 speed=6.49x    frame=28848 fps=156 q=32.0 size=   40969kB time=00:20:03.35 bitrate= 278.9kbits/s dup=1 drop=0 speed=6.49x    frame=28925 fps=156 q=32.0 size=   41118kB time=00:20:06.55 bitrate= 279.2kbits/s dup=1 drop=0 speed=6.49x    frame=29039 fps=156 q=32.0 size=   41228kB time=00:20:11.37 bitrate= 278.8kbits/s dup=1 drop=0 speed= 6.5x    frame=29148 fps=156 q=32.0 size=   41358kB time=00:20:15.85 bitrate= 278.7kbits/s dup=1 drop=0 speed= 6.5x    frame=29245 fps=156 q=32.0 size=   41446kB time=00:20:19.90 bitrate= 278.3kbits/s dup=1 drop=0 speed=6.51x    frame=29326 fps=156 q=32.0 size=   41528kB time=00:20:23.31 bitrate= 278.1kbits/s dup=1 drop=0 speed=6.51x    frame=29410 fps=156 q=32.0 size=   41633kB time=00:20:26.81 bitrate= 278.0kbits/s dup=1 drop=0 speed=6.51x    frame=29481 fps=156 q=32.0 size=   41714kB time=00:20:29.76 bitrate= 277.9kbits/s dup=1 drop=0 speed=6.51x    frame=29556 fps=156 q=32.0 size=   41838kB time=00:20:32.91 bitrate= 278.0kbits/s dup=1 drop=0 speed=6.51x    frame=29650 fps=156 q=32.0 size=   41941kB time=00:20:36.80 bitrate= 277.8kbits/s dup=1 drop=0 speed=6.51x    frame=29749 fps=156 q=32.0 size=   42009kB time=00:20:40.93 bitrate= 277.3kbits/s dup=1 drop=0 speed=6.51x    frame=29816 fps=156 q=32.0 size=   42102kB time=00:20:43.71 bitrate= 277.3kbits/s dup=1 drop=0 speed=6.51x    frame=29901 fps=156 q=32.0 size=   42175kB time=00:20:47.25 bitrate= 277.0kbits/s dup=1 drop=0 speed=6.51x    frame=29987 fps=156 q=32.0 size=   42263kB time=00:20:50.88 bitrate= 276.8kbits/s dup=1 drop=0 speed=6.51x    frame=30046 fps=156 q=32.0 size=   42379kB time=00:20:53.31 bitrate= 277.0kbits/s dup=1 drop=0 speed=6.51x    frame=30118 fps=156 q=32.0 size=   42494kB time=00:20:56.34 bitrate= 277.1kbits/s dup=1 drop=0 speed=6.51x    frame=30183 fps=156 q=32.0 size=   42585kB time=00:20:59.03 bitrate= 277.1kbits/s dup=1 drop=0 speed= 6.5x    frame=30262 fps=156 q=32.0 size=   42731kB time=00:21:02.31 bitrate= 277.3kbits/s dup=1 drop=0 speed= 6.5x    frame=30351 fps=156 q=32.0 size=   42840kB time=00:21:06.02 bitrate= 277.2kbits/s dup=1 drop=0 speed=6.51x    frame=30438 fps=156 q=32.0 size=   42971kB time=00:21:09.65 bitrate= 277.3kbits/s dup=1 drop=0 speed=6.51x    frame=30533 fps=156 q=32.0 size=   43081kB time=00:21:13.62 bitrate= 277.1kbits/s dup=1 drop=0 speed=6.51x    frame=30615 fps=156 q=32.0 size=   43244kB time=00:21:17.07 bitrate= 277.4kbits/s dup=1 drop=0 speed=6.51x    frame=30670 fps=156 q=32.0 size=   43386kB time=00:21:19.33 bitrate= 277.8kbits/s dup=1 drop=0 speed= 6.5x    frame=30704 fps=156 q=32.0 size=   43498kB time=00:21:20.79 bitrate= 278.2kbits/s dup=1 drop=0 speed=6.49x    frame=30741 fps=155 q=32.0 size=   43624kB time=00:21:22.32 bitrate= 278.7kbits/s dup=1 drop=0 speed=6.48x    frame=30796 fps=155 q=32.0 size=   43763kB time=00:21:24.58 bitrate= 279.1kbits/s dup=1 drop=0 speed=6.48x    frame=30895 fps=155 q=32.0 size=   43841kB time=00:21:28.72 bitrate= 278.7kbits/s dup=1 drop=0 speed=6.48x    frame=30957 fps=155 q=32.0 size=   43963kB time=00:21:31.32 bitrate= 278.9kbits/s dup=1 drop=0 speed=6.48x    frame=31010 fps=155 q=32.0 size=   44052kB time=00:21:33.54 bitrate= 279.0kbits/s dup=1 drop=0 speed=6.47x    frame=31064 fps=155 q=32.0 size=   44142kB time=00:21:35.76 bitrate= 279.1kbits/s dup=1 drop=0 speed=6.47x    frame=31118 fps=155 q=32.0 size=   44234kB time=00:21:38.02 bitrate= 279.2kbits/s dup=1 drop=0 speed=6.46x    frame=31176 fps=155 q=32.0 size=   44350kB time=00:21:40.45 bitrate= 279.4kbits/s dup=1 drop=0 speed=6.46x    frame=31234 fps=155 q=32.0 size=   44445kB time=00:21:42.89 bitrate= 279.5kbits/s dup=1 drop=0 speed=6.45x    frame=31293 fps=155 q=32.0 size=   44625kB time=00:21:45.32 bitrate= 280.1kbits/s dup=1 drop=0 speed=6.45x    frame=31344 fps=154 q=32.0 size=   44765kB time=00:21:47.45 bitrate= 280.5kbits/s dup=1 drop=0 speed=6.44x    frame=31398 fps=154 q=32.0 size=   44904kB time=00:21:49.71 bitrate= 280.9kbits/s dup=1 drop=0 speed=6.44x    frame=31453 fps=154 q=32.0 size=   45090kB time=00:21:52.02 bitrate= 281.5kbits/s dup=1 drop=0 speed=6.43x    frame=31499 fps=154 q=32.0 size=   45220kB time=00:21:53.94 bitrate= 281.9kbits/s dup=1 drop=0 speed=6.42x    frame=31532 fps=154 q=32.0 size=   45364kB time=00:21:55.30 bitrate= 282.5kbits/s dup=1 drop=0 speed=6.42x    frame=31575 fps=154 q=32.0 size=   45479kB time=00:21:57.09 bitrate= 282.9kbits/s dup=1 drop=0 speed=6.41x    frame=31639 fps=154 q=32.0 size=   45598kB time=00:21:59.74 bitrate= 283.0kbits/s dup=1 drop=0 speed=6.41x    frame=31677 fps=153 q=32.0 size=   45768kB time=00:22:01.32 bitrate= 283.8kbits/s dup=1 drop=0 speed= 6.4x    frame=31715 fps=153 q=32.0 size=   45907kB time=00:22:02.94 bitrate= 284.3kbits/s dup=1 drop=0 speed=6.39x    frame=31770 fps=153 q=32.0 size=   46022kB time=00:22:05.24 bitrate= 284.5kbits/s dup=1 drop=0 speed=6.38x    frame=31837 fps=153 q=32.0 size=   46189kB time=00:22:08.02 bitrate= 284.9kbits/s dup=1 drop=0 speed=6.38x    frame=31913 fps=153 q=32.0 size=   46315kB time=00:22:11.22 bitrate= 285.0kbits/s dup=1 drop=0 speed=6.38x    frame=31964 fps=153 q=32.0 size=   46453kB time=00:22:13.31 bitrate= 285.4kbits/s dup=1 drop=0 speed=6.38x    frame=32043 fps=153 q=32.0 size=   46561kB time=00:22:16.64 bitrate= 285.4kbits/s dup=1 drop=0 speed=6.38x    frame=32112 fps=153 q=32.0 size=   46676kB time=00:22:19.49 bitrate= 285.5kbits/s dup=1 drop=0 speed=6.37x    frame=32196 fps=153 q=32.0 size=   46783kB time=00:22:22.99 bitrate= 285.4kbits/s dup=1 drop=0 speed=6.37x    frame=32260 fps=153 q=32.0 size=   46920kB time=00:22:25.68 bitrate= 285.6kbits/s dup=1 drop=0 speed=6.37x    frame=32305 fps=153 q=32.0 size=   47053kB time=00:22:27.56 bitrate= 286.0kbits/s dup=1 drop=0 speed=6.37x    frame=32349 fps=152 q=32.0 size=   47252kB time=00:22:29.35 bitrate= 286.9kbits/s dup=1 drop=0 speed=6.36x    frame=32392 fps=152 q=32.0 size=   47437kB time=00:22:31.19 bitrate= 287.6kbits/s dup=1 drop=0 speed=6.35x    frame=32451 fps=152 q=29.0 size=   47638kB time=00:22:33.66 bitrate= 288.3kbits/s dup=1 drop=0 speed=6.35x    frame=32507 fps=152 q=32.0 size=   47845kB time=00:22:35.96 bitrate= 289.1kbits/s dup=1 drop=0 speed=6.34x    frame=32560 fps=152 q=32.0 size=   47983kB time=00:22:38.18 bitrate= 289.4kbits/s dup=1 drop=0 speed=6.34x    frame=32626 fps=152 q=32.0 size=   48106kB time=00:22:40.96 bitrate= 289.6kbits/s dup=1 drop=0 speed=6.34x    frame=32694 fps=152 q=32.0 size=   48235kB time=00:22:43.77 bitrate= 289.7kbits/s dup=1 drop=0 speed=6.34x    frame=32749 fps=152 q=32.0 size=   48356kB time=00:22:46.03 bitrate= 290.0kbits/s dup=1 drop=0 speed=6.33x    frame=32793 fps=152 q=32.0 size=   48479kB time=00:22:47.91 bitrate= 290.3kbits/s dup=1 drop=0 speed=6.33x    frame=32847 fps=152 q=32.0 size=   48607kB time=00:22:50.17 bitrate= 290.6kbits/s dup=1 drop=0 speed=6.32x    frame=32896 fps=151 q=32.0 size=   48712kB time=00:22:52.18 bitrate= 290.8kbits/s dup=1 drop=0 speed=6.32x    frame=32956 fps=151 q=32.0 size=   48798kB time=00:22:54.69 bitrate= 290.8kbits/s dup=1 drop=0 speed=6.31x    frame=33043 fps=151 q=32.0 size=   48877kB time=00:22:58.32 bitrate= 290.5kbits/s dup=1 drop=0 speed=6.31x    frame=33112 fps=151 q=32.0 size=   48985kB time=00:23:01.18 bitrate= 290.5kbits/s dup=1 drop=0 speed=6.31x    frame=33165 fps=151 q=32.0 size=   49094kB time=00:23:03.40 bitrate= 290.7kbits/s dup=1 drop=0 speed=6.31x    frame=33216 fps=151 q=32.0 size=   49226kB time=00:23:05.53 bitrate= 291.0kbits/s dup=1 drop=0 speed= 6.3x    frame=33286 fps=151 q=32.0 size=   49318kB time=00:23:08.48 bitrate= 291.0kbits/s dup=1 drop=0 speed= 6.3x    frame=33337 fps=151 q=32.0 size=   49439kB time=00:23:10.57 bitrate= 291.3kbits/s dup=1 drop=0 speed= 6.3x    frame=33377 fps=151 q=32.0 size=   49532kB time=00:23:12.27 bitrate= 291.4kbits/s dup=1 drop=0 speed=6.29x    frame=33429 fps=151 q=32.0 size=   49639kB time=00:23:14.41 bitrate= 291.6kbits/s dup=1 drop=0 speed=6.29x    frame=33519 fps=151 q=32.0 size=   49747kB time=00:23:18.20 bitrate= 291.5kbits/s dup=1 drop=0 speed=6.29x    frame=33589 fps=151 q=32.0 size=   49838kB time=00:23:21.11 bitrate= 291.4kbits/s dup=1 drop=0 speed=6.29x    frame=33642 fps=151 q=32.0 size=   49924kB time=00:23:23.28 bitrate= 291.4kbits/s dup=1 drop=0 speed=6.28x    frame=33671 fps=150 q=32.0 size=   49971kB time=00:23:24.52 bitrate= 291.5kbits/s dup=1 drop=0 speed=6.27x    frame=33711 fps=150 q=32.0 size=   50039kB time=00:23:26.18 bitrate= 291.5kbits/s dup=1 drop=0 speed=6.27x    frame=33759 fps=150 q=32.0 size=   50167kB time=00:23:28.19 bitrate= 291.8kbits/s dup=1 drop=0 speed=6.26x    frame=33815 fps=150 q=32.0 size=   50282kB time=00:23:30.53 bitrate= 292.0kbits/s dup=1 drop=0 speed=6.26x    frame=33895 fps=150 q=32.0 size=   50416kB time=00:23:33.86 bitrate= 292.1kbits/s dup=1 drop=0 speed=6.26x    frame=33964 fps=150 q=32.0 size=   50553kB time=00:23:36.72 bitrate= 292.3kbits/s dup=1 drop=0 speed=6.26x    frame=34062 fps=150 q=32.0 size=   50749kB time=00:23:40.82 bitrate= 292.6kbits/s dup=1 drop=0 speed=6.26x    frame=34145 fps=150 q=32.0 size=   50867kB time=00:23:44.32 bitrate= 292.6kbits/s dup=1 drop=0 speed=6.26x    frame=34239 fps=150 q=29.0 size=   50981kB time=00:23:48.20 bitrate= 292.4kbits/s dup=1 drop=0 speed=6.27x    frame=34340 fps=150 q=32.0 size=   51098kB time=00:23:52.42 bitrate= 292.2kbits/s dup=1 drop=0 speed=6.27x    frame=34431 fps=150 q=32.0 size=   51181kB time=00:23:56.22 bitrate= 291.9kbits/s dup=1 drop=0 speed=6.27x    frame=34489 fps=150 q=32.0 size=   51291kB time=00:23:58.61 bitrate= 292.1kbits/s dup=1 drop=0 speed=6.27x    frame=34559 fps=150 q=32.0 size=   51365kB time=00:24:01.55 bitrate= 291.9kbits/s dup=1 drop=0 speed=6.27x    frame=34642 fps=150 q=32.0 size=   51438kB time=00:24:05.05 bitrate= 291.6kbits/s dup=1 drop=0 speed=6.27x    frame=34719 fps=150 q=32.0 size=   51546kB time=00:24:08.21 bitrate= 291.6kbits/s dup=1 drop=0 speed=6.27x    frame=34781 fps=150 q=32.0 size=   51656kB time=00:24:10.81 bitrate= 291.7kbits/s dup=1 drop=0 speed=6.27x    frame=34878 fps=150 q=32.0 size=   51774kB time=00:24:14.87 bitrate= 291.5kbits/s dup=1 drop=0 speed=6.27x    frame=34981 fps=150 q=32.0 size=   51915kB time=00:24:19.13 bitrate= 291.5kbits/s dup=1 drop=0 speed=6.28x    frame=35077 fps=151 q=32.0 size=   52001kB time=00:24:23.14 bitrate= 291.2kbits/s dup=1 drop=0 speed=6.28x    frame=35182 fps=151 q=32.0 size=   52098kB time=00:24:27.54 bitrate= 290.8kbits/s dup=1 drop=0 speed=6.28x    frame=35299 fps=151 q=32.0 size=   52243kB time=00:24:32.40 bitrate= 290.7kbits/s dup=1 drop=0 speed=6.29x    frame=35401 fps=151 q=32.0 size=   52379kB time=00:24:36.67 bitrate= 290.6kbits/s dup=1 drop=0 speed= 6.3x    frame=35492 fps=151 q=32.0 size=   52473kB time=00:24:40.47 bitrate= 290.4kbits/s dup=1 drop=0 speed= 6.3x    [mp4 @ 0x27a1aa0] Starting second pass: moving the moov atom to the beginning of the file
frame=35525 fps=151 q=-1.0 Lsize=   53393kB time=00:24:41.62 bitrate= 295.2kbits/s dup=1 drop=0 speed=6.29x    
video:43134kB audio:9418kB subtitle:0kB other streams:0kB global headers:0kB muxing overhead: 1.601180%
[libx264 @ 0x2812940] frame I:339   Avg QP:22.17  size: 17776
[libx264 @ 0x2812940] frame P:11123 Avg QP:24.45  size:  2697
[libx264 @ 0x2812940] frame B:24063 Avg QP:31.36  size:   339
[libx264 @ 0x2812940] consecutive B-frames:  4.8%  9.0% 17.3% 68.9%
[libx264 @ 0x2812940] mb I  I16..4: 31.6% 45.1% 23.3%
[libx264 @ 0x2812940] mb P  I16..4:  4.6%  3.7%  1.1%  P16..4: 31.0%  3.9%  4.3%  0.1%  0.0%    skip:51.2%
[libx264 @ 0x2812940] mb B  I16..4:  0.2%  0.2%  0.1%  B16..8: 12.0%  0.8%  0.2%  direct: 0.6%  skip:85.9%  L0:38.7% L1:59.1% BI: 2.2%
[libx264 @ 0x2812940] 8x8 transform intra:40.8% inter:60.6%
[libx264 @ 0x2812940] coded y,uvDC,uvAC intra: 30.7% 54.8% 7.8% inter: 2.1% 5.3% 0.0%
[libx264 @ 0x2812940] i16 v,h,dc,p: 43% 30% 15% 12%
[libx264 @ 0x2812940] i8 v,h,dc,ddl,ddr,vr,hd,vl,hu: 23% 17% 40%  3%  3%  4%  3%  4%  4%
[libx264 @ 0x2812940] i4 v,h,dc,ddl,ddr,vr,hd,vl,hu: 29% 21% 18%  5%  5%  6%  6%  6%  4%
[libx264 @ 0x2812940] i8c dc,h,v,p: 45% 24% 25%  6%
[libx264 @ 0x2812940] Weighted P-Frames: Y:1.5% UV:1.1%
[libx264 @ 0x2812940] ref P L0: 64.7% 10.8% 10.9%  3.8%  2.9%  2.5%  2.7%  1.4%  0.5%  0.0%
[libx264 @ 0x2812940] ref B L0: 83.3%  6.9%  3.9%  1.9%  1.6%  1.2%  1.0%
[libx264 @ 0x2812940] ref B L1: 94.7%  5.3%
[libx264 @ 0x2812940] kb/s:238.48
